<?xml version="1.0" encoding="utf-8"?>
<!-- Generator: Adobe Illustrator 16.0.0, SVG Export Plug-In . SVG Version: 6.00 Build 0)  -->
<!DOCTYPE svg PUBLIC "-//W3C//DTD SVG 1.1//EN" "http://www.w3.org/Graphics/SVG/1.1/DTD/svg11.dtd">
<svg version="1.1" id="Layer_1" xmlns="http://www.w3.org/2000/svg" xmlns:xlink="http://www.w3.org/1999/xlink" x="0px" y="0px"
	 width="56px" height="56px" viewBox="380.717 381.036 56 56" enable-background="new 380.717 381.036 56 56" xml:space="preserve">
<path fill="#FFFFFF" d="M408.94,425.466c-0.103,0-0.197-0.004-0.268-0.004c-0.058,0-0.117,0.004-0.176,0.004
	c-2.083,0-3.478-0.984-4.708-1.854c-0.88-0.623-1.712-1.211-2.686-1.373c-0.479-0.08-0.954-0.121-1.414-0.121
	c-0.827,0-1.481,0.131-1.96,0.225c-0.294,0.055-0.548,0.107-0.744,0.107c-0.205,0-0.454-0.047-0.559-0.404
	c-0.082-0.277-0.142-0.549-0.197-0.811c-0.144-0.654-0.247-1.051-0.492-1.088c-2.613-0.404-4.156-1-4.464-1.719
	c-0.032-0.076-0.051-0.148-0.055-0.225c-0.012-0.217,0.14-0.402,0.35-0.438c2.077-0.342,3.922-1.439,5.486-3.264
	c1.212-1.412,1.809-2.758,1.872-2.908c0.003-0.008,0.006-0.012,0.008-0.02c0.304-0.611,0.362-1.143,0.18-1.57
	c-0.336-0.795-1.451-1.148-2.19-1.385c-0.183-0.057-0.356-0.111-0.495-0.168c-0.654-0.258-1.73-0.805-1.586-1.558
	c0.104-0.55,0.83-0.931,1.418-0.931c0.162,0,0.308,0.027,0.43,0.086c0.664,0.311,1.261,0.467,1.774,0.467
	c0.639,0,0.946-0.242,1.021-0.311c-0.019-0.341-0.041-0.701-0.062-1.042v-0.005c-0.149-2.386-0.337-5.353,0.421-7.054
	c2.272-5.095,7.091-5.491,8.513-5.491c0.039,0,0.619-0.006,0.619-0.006c0.029-0.001,0.057-0.002,0.086-0.002
	c1.425,0,6.254,0.398,8.526,5.496c0.76,1.701,0.574,4.672,0.423,7.061l-0.009,0.113c-0.019,0.324-0.038,0.631-0.054,0.929
	c0.07,0.064,0.354,0.288,0.928,0.31c0.489-0.018,1.051-0.175,1.671-0.465c0.189-0.091,0.402-0.109,0.548-0.109
	c0.219,0,0.438,0.043,0.624,0.119l0.007,0.004c0.527,0.188,0.872,0.559,0.881,0.951c0.007,0.365-0.267,0.912-1.601,1.438
	c-0.137,0.055-0.311,0.111-0.496,0.168c-0.737,0.236-1.854,0.59-2.19,1.385c-0.185,0.428-0.121,0.959,0.18,1.57
	c0.004,0.008,0.008,0.01,0.011,0.018c0.092,0.221,2.339,5.346,7.354,6.174c0.212,0.035,0.365,0.221,0.352,0.436
	c-0.005,0.078-0.021,0.152-0.054,0.229c-0.306,0.715-1.851,1.311-4.467,1.713c-0.244,0.039-0.348,0.434-0.487,1.082
	c-0.062,0.271-0.12,0.533-0.202,0.811c-0.073,0.258-0.243,0.383-0.515,0.383h-0.041c-0.178,0-0.43-0.031-0.744-0.092
	c-0.553-0.109-1.173-0.209-1.961-0.209c-0.462,0-0.937,0.041-1.416,0.123c-0.971,0.16-1.803,0.748-2.682,1.371
	C412.417,424.479,411.023,425.466,408.94,425.466"/>
<rect x="0" y="0.157" fill="none" width="514.23" height="514.23"/>
</svg>
